<?xml version="1.0" standalone="no"?>
<!DOCTYPE svg PUBLIC "-//W3C//DTD SVG 20010904//EN"
 "http://www.w3.org/TR/2001/REC-SVG-20010904/DTD/svg10.dtd">
<svg version="1.0" xmlns="http://www.w3.org/2000/svg"
 width="260.000000pt" height="260.000000pt" viewBox="0 0 260.000000 260.000000"
 preserveAspectRatio="xMidYMid meet">
<metadata>
Created by potrace 1.11, written by Peter Selinger 2001-2013
</metadata>
<g transform="translate(0.000000,260.000000) scale(0.100000,-0.100000)"
fill="#000000" stroke="none">
<path d="M1135 2530 c-27 -8 -66 -24 -85 -34 -19 -11 -52 -18 -74 -18 -50 2
-125 -37 -285 -151 -134 -95 -201 -151 -201 -168 0 -5 -4 -7 -10 -4 -6 3 -7
-1 -4 -9 3 -9 1 -16 -5 -16 -6 0 -10 -3 -9 -7 3 -17 -15 -43 -25 -36 -6 4 -8
0 -4 -10 3 -10 3 -17 -2 -17 -4 0 -8 -6 -9 -12 -5 -44 -16 -78 -23 -78 -5 0
-9 -7 -9 -16 0 -9 -5 -12 -12 -8 -10 6 -10 5 -1 -7 10 -12 9 -20 -3 -37 -8
-12 -19 -20 -24 -17 -4 3 -10 -2 -13 -10 -4 -10 -1 -12 10 -8 11 4 14 2 11 -8
-3 -8 -10 -13 -15 -12 -5 1 -10 -4 -10 -12 0 -8 4 -12 8 -9 4 2 6 -6 3 -18 -3
-13 -5 -38 -5 -55 2 -37 -14 -43 -36 -15 -13 15 -13 15 -4 -5 6 -12 15 -23 21
-25 6 -2 11 -22 13 -45 1 -24 5 -43 9 -43 4 0 4 -24 1 -52 -7 -74 -7 -170 2
-191 6 -13 3 -16 -9 -11 -9 3 -14 10 -11 14 9 14 -16 23 -28 11 -9 -9 -7 -10
7 -5 13 5 17 4 12 -4 -4 -6 5 -18 21 -27 15 -9 20 -14 11 -11 -15 4 -14 1 4
-30 11 -19 16 -34 11 -34 -4 0 -1 -4 7 -10 12 -8 12 -10 -3 -16 -17 -6 -14
-24 4 -24 6 0 7 5 4 10 -3 6 -1 10 4 10 10 0 16 -29 12 -52 0 -5 6 -8 14 -8
12 0 13 -4 5 -19 -15 -29 -12 -38 5 -15 14 19 14 18 15 -3 0 -13 -6 -23 -12
-23 -8 0 -6 -5 4 -11 9 -5 15 -16 12 -24 -4 -8 -10 -12 -15 -9 -5 3 -9 0 -9
-5 0 -15 13 -14 29 2 7 6 11 8 10 2 -1 -5 3 -23 9 -38 7 -16 9 -34 5 -40 -3
-7 -3 -9 2 -5 7 7 37 -29 95 -111 8 -12 22 -24 32 -27 10 -3 18 -10 18 -15 0
-6 -4 -8 -8 -5 -4 2 -14 0 -22 -5 -11 -7 -7 -8 12 -5 15 3 30 0 33 -5 4 -5 0
-9 -7 -10 -7 0 -3 -4 10 -9 26 -11 28 -25 5 -39 -10 -6 -13 -11 -8 -11 6 0 16
5 23 12 15 15 20 10 25 -27 2 -19 -2 -35 -12 -43 -14 -12 -14 -13 2 -8 9 3 17
1 17 -4 0 -6 -6 -10 -12 -10 -9 0 -8 -4 2 -10 12 -8 13 -12 2 -19 -11 -6 -10
-10 3 -15 11 -4 15 -13 12 -26 -3 -11 0 -20 6 -20 7 0 5 -5 -3 -10 -21 -14
-33 -12 -24 3 4 6 3 9 -1 4 -5 -4 -10 -27 -11 -50 -1 -24 0 -34 4 -22 9 25 34
26 38 2 2 -13 -2 -17 -12 -13 -8 3 -14 1 -14 -4 0 -6 7 -10 15 -10 8 0 15 -6
16 -12 0 -7 2 -28 3 -46 1 -18 8 -38 15 -45 10 -9 11 -8 5 6 -6 16 -2 15 32
-4 22 -13 41 -24 43 -25 1 -2 0 -8 -4 -14 -4 -6 -13 -3 -24 11 -14 17 -18 19
-18 6 0 -9 4 -14 8 -12 4 3 10 -3 13 -12 5 -12 9 -14 18 -5 13 13 42 16 34 4
-3 -5 11 -14 30 -21 37 -13 43 -25 18 -35 -9 -4 -14 -9 -11 -12 3 -3 14 1 26
8 17 10 25 10 41 0 11 -6 29 -12 40 -12 14 0 19 -4 14 -12 -5 -7 -2 -9 7 -6 8
3 43 -4 79 -16 50 -16 65 -25 65 -40 0 -20 39 -33 49 -17 3 4 -6 7 -19 5 -14
-1 -25 2 -25 6 0 13 21 24 29 14 3 -5 17 -11 31 -13 14 -1 28 -8 31 -13 4 -6
11 -8 17 -4 6 4 10 -2 9 -14 -1 -12 -8 -20 -19 -20 -10 0 -17 5 -16 12 2 6 -6
13 -17 15 -18 3 -18 2 -2 -5 10 -4 18 -12 18 -17 -1 -6 9 -10 22 -10 12 0 21
5 19 13 -1 6 5 12 13 12 8 0 15 -4 15 -10 0 -5 7 -6 17 -3 12 5 14 3 8 -7 -6
-10 -4 -12 8 -7 28 10 72 -8 69 -29 -2 -18 -2 -18 11 -2 8 10 17 14 21 10 4
-4 12 -7 18 -7 6 0 12 -8 14 -18 1 -11 6 -22 10 -25 4 -4 4 1 1 10 -9 26 8 31
44 13 17 -9 33 -14 36 -11 3 3 27 -4 54 -14 28 -12 49 -15 49 -9 0 5 5 7 10 4
8 -5 7 -11 -1 -21 -10 -12 -9 -13 5 -8 9 3 16 13 16 21 0 13 2 13 17 2 9 -8
14 -9 11 -3 -4 6 11 15 38 22 39 11 44 15 44 41 0 22 6 31 29 41 32 13 54 58
70 145 13 66 32 102 54 99 9 -1 17 2 17 7 0 5 7 9 15 9 8 0 15 4 15 8 0 4 15
16 33 27 17 10 52 39 77 65 54 55 55 62 51 255 -1 39 0 80 3 92 4 21 10 68 21
176 3 33 -3 71 -20 125 -26 83 -34 131 -36 202 -1 25 -6 54 -12 64 -5 11 -11
38 -12 61 -2 22 -4 57 -5 75 -2 19 5 53 15 75 27 58 27 119 0 195 -13 36 -26
81 -29 101 -8 54 -70 179 -112 224 -20 22 -51 63 -69 90 -39 61 -140 165 -159
165 -7 0 -19 6 -25 14 -7 8 -27 17 -45 20 -18 3 -42 17 -54 31 -12 14 -30 25
-39 25 -65 2 -116 12 -138 26 -19 13 -37 15 -73 10 -84 -13 -106 -13 -142 -1
-28 9 -45 8 -85 -5z m-446 -1981 c-7 -4 -17 -5 -22 -2 -5 3 -3 9 4 14 7 4 17
5 22 2 5 -3 3 -9 -4 -14z"/>
<path d="M395 2040 c-3 -5 -1 -10 4 -10 6 0 11 5 11 10 0 6 -2 10 -4 10 -3 0
-8 -4 -11 -10z"/>
<path d="M360 1920 c-9 -6 -10 -10 -3 -10 6 0 15 5 18 10 8 12 4 12 -15 0z"/>
<path d="M315 1800 c-3 -5 -1 -10 4 -10 6 0 11 5 11 10 0 6 -2 10 -4 10 -3 0
-8 -4 -11 -10z"/>
<path d="M316 1747 c3 -10 9 -15 12 -12 3 3 0 11 -7 18 -10 9 -11 8 -5 -6z"/>
<path d="M297 1694 c4 -11 3 -15 -5 -10 -6 3 -13 2 -16 -3 -4 -5 2 -8 11 -7
20 3 28 21 14 31 -7 4 -8 0 -4 -11z"/>
<path d="M310 1660 c0 -5 5 -10 11 -10 5 0 7 5 4 10 -3 6 -8 10 -11 10 -2 0
-4 -4 -4 -10z"/>
<path d="M290 1640 c8 -5 20 -10 25 -10 6 0 3 5 -5 10 -8 5 -19 10 -25 10 -5
0 -3 -5 5 -10z"/>
<path d="M315 1599 c-11 -16 -1 -19 13 -3 7 8 8 14 3 14 -5 0 -13 -5 -16 -11z"/>
<path d="M293 1531 c0 -11 5 -18 9 -15 4 3 5 11 1 19 -7 21 -12 19 -10 -4z"/>
<path d="M316 1537 c3 -10 9 -15 12 -12 3 3 0 11 -7 18 -10 9 -11 8 -5 -6z"/>
<path d="M300 1484 c8 -10 15 -20 16 -22 1 -2 4 1 7 5 3 5 -4 15 -16 23 -21
12 -21 12 -7 -6z"/>
<path d="M291 1447 c2 -2 11 -8 20 -15 12 -9 16 -9 16 1 0 7 -9 14 -20 14 -11
1 -18 1 -16 0z"/>
<path d="M285 1419 c-4 -6 -4 -13 -1 -16 3 -4 6 -1 6 6 0 7 5 9 12 5 7 -4 8
-3 4 4 -9 15 -13 15 -21 1z"/>
<path d="M286 1362 c-3 -5 1 -9 9 -9 8 0 12 4 9 9 -3 4 -7 8 -9 8 -2 0 -6 -4
-9 -8z"/>
<path d="M300 1336 c0 -2 7 -7 16 -10 8 -3 12 -2 9 4 -6 10 -25 14 -25 6z"/>
<path d="M325 1303 c6 -4 11 -16 13 -26 3 -15 0 -16 -17 -5 -11 6 -17 16 -14
22 4 5 1 6 -7 1 -10 -6 -10 -11 3 -20 9 -7 14 -15 11 -18 -3 -3 2 -4 13 -3 22
4 25 47 3 53 -9 3 -11 1 -5 -4z"/>
<path d="M321 1233 c-1 -17 16 -25 25 -12 4 7 3 9 -4 5 -5 -3 -13 0 -15 6 -4
9 -6 10 -6 1z"/>
<path d="M358 1203 c7 -3 16 -2 19 1 4 3 -2 6 -13 5 -11 0 -14 -3 -6 -6z"/>
<path d="M356 1179 c3 -5 9 -7 14 -4 4 3 11 0 13 -5 3 -6 4 -5 3 1 -1 7 -10
13 -19 15 -9 1 -15 -2 -11 -7z"/>
<path d="M375 1141 c-6 -11 13 -26 22 -17 4 3 1 6 -6 6 -7 0 -9 5 -6 10 3 6 4
10 1 10 -3 0 -7 -4 -11 -9z"/>
<path d="M374 1058 c-5 -7 -2 -8 6 -3 10 6 12 4 6 -10 -5 -15 -4 -16 9 -5 19
15 19 16 0 23 -8 4 -17 1 -21 -5z"/>
<path d="M428 1053 c7 -3 16 -2 19 1 4 3 -2 6 -13 5 -11 0 -14 -3 -6 -6z"/>
<path d="M420 1026 c0 -2 7 -6 15 -10 8 -3 15 -1 15 4 0 6 -7 10 -15 10 -8 0
-15 -2 -15 -4z"/>
<path d="M420 1000 c8 -5 20 -10 25 -10 6 0 3 5 -5 10 -8 5 -19 10 -25 10 -5
0 -3 -5 5 -10z"/>
<path d="M413 970 c-1 -11 2 -20 7 -20 4 0 7 7 6 15 -3 23 -12 26 -13 5z"/>
<path d="M457 983 c-10 -10 -8 -33 3 -33 5 0 6 7 3 17 -5 12 -3 14 7 8 9 -5
11 -4 6 3 -8 14 -10 14 -19 5z"/>
<path d="M495 940 c-3 -5 -1 -10 4 -10 6 0 11 5 11 10 0 6 -2 10 -4 10 -3 0
-8 -4 -11 -10z"/>
<path d="M430 919 c0 -5 5 -7 10 -4 6 3 10 8 10 11 0 2 -4 4 -10 4 -5 0 -10
-5 -10 -11z"/>
<path d="M516 915 c-9 -26 -7 -32 5 -12 6 10 9 21 6 23 -2 3 -7 -2 -11 -11z"/>
<path d="M470 910 c-8 -5 -10 -10 -5 -10 6 0 17 5 25 10 8 5 11 10 5 10 -5 0
-17 -5 -25 -10z"/>
<path d="M533 880 c3 -17 11 -25 26 -26 19 -2 19 -1 1 3 -11 2 -18 8 -16 12 3
4 0 13 -5 21 -7 11 -8 8 -6 -10z"/>
<path d="M506 863 c-6 -14 -5 -15 5 -6 7 7 10 15 7 18 -3 3 -9 -2 -12 -12z"/>
<path d="M555 790 c-3 -6 1 -7 9 -4 18 7 21 14 7 14 -6 0 -13 -4 -16 -10z"/>
<path d="M593 783 c4 -3 1 -13 -5 -22 -7 -9 -8 -13 -4 -9 5 4 14 0 21 -9 9
-13 14 -13 20 -3 5 9 4 11 -3 6 -12 -7 -16 5 -13 32 1 6 -4 12 -10 12 -7 0 -9
-3 -6 -7z"/>
<path d="M639 738 c-6 -21 -5 -37 2 -32 5 3 7 9 4 14 -3 4 1 11 7 13 10 4 10
6 1 6 -7 1 -13 0 -14 -1z"/>
<path d="M613 691 c0 -11 5 -18 9 -15 4 3 5 11 1 19 -7 21 -12 19 -10 -4z"/>
<path d="M633 650 c-1 -11 2 -20 5 -20 4 0 8 9 9 20 1 11 -2 20 -5 20 -4 0 -8
-9 -9 -20z"/>
<path d="M650 608 c-10 -21 -10 -21 3 -6 8 10 18 14 22 10 5 -4 5 -1 1 6 -10
17 -14 15 -26 -10z"/>
<path d="M654 440 c0 -10 6 -16 13 -13 7 3 13 9 13 13 0 4 -6 10 -13 13 -7 3
-13 -3 -13 -13z"/>
<path d="M641 396 c-9 -11 -9 -16 1 -22 7 -4 10 -4 6 1 -4 4 -3 14 3 22 6 7 9
13 6 13 -2 0 -10 -6 -16 -14z"/>
<path d="M670 380 c0 -5 7 -7 15 -4 11 5 14 1 9 -12 -5 -15 -4 -16 4 -4 6 8 8
18 6 22 -7 11 -34 10 -34 -2z"/>
<path d="M715 360 c-3 -6 1 -7 9 -4 18 7 21 14 7 14 -6 0 -13 -4 -16 -10z"/>
<path d="M736 337 c3 -10 9 -15 12 -12 3 3 0 11 -7 18 -10 9 -11 8 -5 -6z"/>
<path d="M789 308 c-9 -16 -8 -19 2 -13 8 6 11 4 7 -7 -4 -8 0 -15 7 -15 10 0
11 5 4 18 -13 24 -11 29 6 23 8 -4 15 -4 15 -1 0 17 -31 13 -41 -5z"/>
<path d="M850 299 c0 -5 5 -7 10 -4 6 3 10 8 10 11 0 2 -4 4 -10 4 -5 0 -10
-5 -10 -11z"/>
<path d="M916 267 c3 -10 9 -15 12 -12 3 3 0 11 -7 18 -10 9 -11 8 -5 -6z"/>
<path d="M880 258 c-12 -8 -11 -9 4 -4 15 5 17 2 13 -14 -3 -11 -1 -18 4 -14
11 6 12 31 1 38 -4 2 -14 0 -22 -6z"/>
<path d="M935 241 c-3 -5 0 -13 6 -17 7 -4 9 -3 5 4 -3 6 2 13 11 15 16 4 16
5 1 6 -9 0 -19 -3 -23 -8z"/>
<path d="M960 226 c0 -2 7 -7 16 -10 8 -3 12 -2 9 4 -6 10 -25 14 -25 6z"/>
<path d="M1004 218 c-5 -7 -3 -8 6 -3 10 6 12 3 8 -13 -4 -16 -2 -19 10 -15
11 5 13 3 7 -7 -5 -9 -4 -11 3 -6 9 5 7 14 -4 32 -19 28 -20 28 -30 12z"/>
<path d="M1055 219 c-4 -6 -4 -13 -1 -16 3 -4 6 -1 6 6 0 7 5 9 12 5 7 -4 8
-3 4 4 -9 15 -13 15 -21 1z"/>
<path d="M1090 206 c0 -2 7 -7 16 -10 8 -3 12 -2 9 4 -6 10 -25 14 -25 6z"/>
<path d="M1066 183 c-6 -14 -5 -15 5 -6 7 7 10 15 7 18 -3 3 -9 -2 -12 -12z"/>
<path d="M1093 183 c4 -3 -1 -16 -10 -27 -18 -21 -18 -21 4 -2 20 16 23 36 6
36 -4 0 -3 -3 0 -7z"/>
<path d="M1116 162 c-3 -5 1 -9 9 -9 8 0 12 4 9 9 -3 4 -7 8 -9 8 -2 0 -6 -4
-9 -8z"/>
<path d="M1196 113 c-6 -14 -5 -15 5 -6 7 7 10 15 7 18 -3 3 -9 -2 -12 -12z"/>
<path d="M1278 123 c7 -3 16 -2 19 1 4 3 -2 6 -13 5 -11 0 -14 -3 -6 -6z"/>
<path d="M1330 120 c-9 -6 -10 -10 -3 -10 6 0 15 5 18 10 8 12 4 12 -15 0z"/>
<path d="M1290 99 c0 -5 5 -7 10 -4 6 3 10 8 10 11 0 2 -4 4 -10 4 -5 0 -10
-5 -10 -11z"/>
<path d="M1353 93 c0 -11 7 -20 14 -20 10 0 10 4 1 16 -7 9 -13 18 -15 20 -1
2 -1 -5 0 -16z"/>
<path d="M1410 79 c0 -5 4 -8 9 -4 6 3 14 -3 20 -12 6 -10 11 -13 11 -7 0 12
-20 34 -32 34 -4 0 -8 -5 -8 -11z"/>
<path d="M1490 72 c7 -13 14 -21 18 -18 3 4 11 -3 17 -15 11 -19 13 -19 18 -5
4 10 3 15 -2 12 -5 -3 -12 1 -15 10 -4 9 -9 14 -13 11 -3 -4 -12 1 -20 11 -13
15 -13 14 -3 -6z"/>
<path d="M1390 60 c0 -5 5 -10 11 -10 5 0 7 5 4 10 -3 6 -8 10 -11 10 -2 0 -4
-4 -4 -10z"/>
<path d="M1577 45 c-4 -8 -3 -16 1 -19 4 -3 9 4 9 15 2 23 -3 25 -10 4z"/>
<path d="M1474 35 c3 -23 12 -26 13 -5 1 11 -2 20 -7 20 -4 0 -7 -7 -6 -15z"/>
<path d="M1600 40 c0 -5 5 -10 11 -10 5 0 7 5 4 10 -3 6 -8 10 -11 10 -2 0 -4
-4 -4 -10z"/>
</g>
</svg>
